ffmpeg started on 2016-12-02 at 16:25:27
Report written to "Output/x264/results/ffmpeg/old_town_cross_2160p50veryslow4500k.log"
Command line:
Tools/ffmpeg/ffmpeg -benchmark -y -i Input/y4m/old_town_cross_2160p50.y4m -c:v libx264 -preset veryslow -b:v 4500k -an Output/x264/encoded/old_town_cross_2160p50veryslow4500k.mkv
ffmpeg version N-82227-gdb23fde Copyright (c) 2000-2016 the FFmpeg developers
  built with gcc 5.4.0 (Ubuntu 5.4.0-6ubuntu1~16.04.2) 20160609
  configuration: --prefix=/home/jaroslav/ffmpeg_build --pkg-config-flags=--static --extra-cflags=-I/home/jaroslav/ffmpeg_build/include --extra-ldflags=-L/home/jaroslav/ffmpeg_build/lib --bindir=/home/jaroslav/bin --enable-gpl --enable-libass --enable-libfdk-aac --enable-libfreetype --enable-libmp3lame --enable-libopus --enable-libtheora --enable-libvorbis --enable-libvpx --enable-libx264 --enable-libx265 --enable-nvenc --enable-libmfx --enable-libxvid --enable-libgsm --enable-libopencore-amrnb --enable-version3 --enable-nonfree
  libavutil      55. 35.100 / 55. 35.100
  libavcodec     57. 66.101 / 57. 66.101
  libavformat    57. 57.100 / 57. 57.100
  libavdevice    57.  2.100 / 57.  2.100
  libavfilter     6. 66.100 /  6. 66.100
  libswscale      4.  3.100 /  4.  3.100
  libswresample   2.  4.100 /  2.  4.100
  libpostproc    54.  2.100 / 54.  2.100
Input #0, yuv4mpegpipe, from 'Input/y4m/old_town_cross_2160p50.y4m':
  Duration: 00:00:10.00, start: 0.000000, bitrate: 4976642 kb/s
    Stream #0:0: Video: rawvideo (I420 / 0x30323449), yuv420p(progressive), 3840x2160, SAR 1:1 DAR 16:9, 50 fps, 50 tbr, 50 tbn, 50 tbc
[libx264 @ 0x424e120] using SAR=1/1
[libx264 @ 0x424e120] DPB size (16 frames, 518400 mbs) > level limit (5 frames, 184320 mbs)
[libx264 @ 0x424e120] using cpu capabilities: MMX2 SSE2Fast SSSE3 SSE4.2 AVX FMA3 AVX2 LZCNT BMI2
[libx264 @ 0x424e120] profile High, level 5.2
[libx264 @ 0x424e120] 264 - core 148 - H.264/MPEG-4 AVC codec - Copyleft 2003-2016 - http://www.videolan.org/x264.html - options: cabac=1 ref=16 deblock=1:0:0 analyse=0x3:0x133 me=umh subme=10 psy=1 psy_rd=1.00:0.00 mixed_ref=1 me_range=24 chroma_me=1 trellis=2 8x8dct=1 cqm=0 deadzone=21,11 fast_pskip=1 chroma_qp_offset=-2 threads=6 lookahead_threads=1 sliced_threads=0 nr=0 decimate=1 interlaced=0 bluray_compat=0 constrained_intra=0 bframes=8 b_pyramid=2 b_adapt=2 b_bias=0 direct=3 weightb=1 open_gop=0 weightp=2 keyint=250 keyint_min=25 scenecut=40 intra_refresh=0 rc_lookahead=60 rc=abr mbtree=1 bitrate=4500 ratetol=1.0 qcomp=0.60 qpmin=0 qpmax=69 qpstep=4 ip_ratio=1.40 aq=1:1.00
Output #0, matroska, to 'Output/x264/encoded/old_town_cross_2160p50veryslow4500k.mkv':
  Metadata:
    encoder         : Lavf57.57.100
    Stream #0:0: Video: h264 (libx264) (H264 / 0x34363248), yuv420p, 3840x2160 [SAR 1:1 DAR 16:9], q=-1--1, 4500 kb/s, 50 fps, 1k tbn, 50 tbc
    Metadata:
      encoder         : Lavc57.66.101 libx264
    Side data:
      cpb: bitrate max/min/avg: 0/0/4500000 buffer size: 0 vbv_delay: -1
Stream mapping:
  Stream #0:0 -> #0:0 (rawvideo (native) -> h264 (libx264))
Press [q] to stop, [?] for help
frame=   60 fps=0.0 q=0.0 size=       0kB time=00:00:00.00 bitrate=N/A speed=   0x    frame=   72 fps=8.0 q=0.0 size=       0kB time=00:00:00.00 bitrate=N/A speed=   0x    frame=   77 fps=7.7 q=40.0 size=       1kB time=-00:00:00.01 bitrate=N/A speed=N/A    frame=   82 fps=6.9 q=44.0 size=       1kB time=00:00:00.08 bitrate=  72.7kbits/s speed=0.00679x    frame=   88 fps=6.8 q=47.0 size=       1kB time=00:00:00.20 bitrate=  29.3kbits/s speed=0.0156x    frame=   91 fps=6.2 q=47.0 size=       1kB time=00:00:00.26 bitrate=  22.6kbits/s speed=0.0176x    frame=   97 fps=6.0 q=45.0 size=       1kB time=00:00:00.38 bitrate=  15.5kbits/s speed=0.0238x    frame=  100 fps=5.7 q=43.0 size=       1kB time=00:00:00.44 bitrate=  13.4kbits/s speed=0.025x    frame=  105 fps=5.6 q=42.0 size=       1kB time=00:00:00.54 bitrate=  10.9kbits/s speed=0.029x    frame=  106 fps=5.5 q=42.0 size=       1kB time=00:00:00.56 bitrate=  10.5kbits/s speed=0.0291x    frame=  108 fps=5.3 q=41.0 size=       1kB time=00:00:00.60 bitrate=   9.8kbits/s speed=0.0296x    frame=  113 fps=5.2 q=41.0 size=       1kB time=00:00:00.70 bitrate=   8.4kbits/s speed=0.0324x    frame=  115 fps=5.1 q=40.0 size=       1kB time=00:00:00.74 bitrate=   7.9kbits/s speed=0.0328x    frame=  117 fps=5.0 q=40.0 size=       1kB time=00:00:00.78 bitrate=   7.5kbits/s speed=0.0335x    frame=  121 fps=5.1 q=40.0 size=       1kB time=00:00:00.86 bitrate=   6.8kbits/s speed=0.036x    frame=  122 fps=4.8 q=40.0 size=       1kB time=00:00:00.88 bitrate=   6.7kbits/s speed=0.0349x    frame=  123 fps=4.8 q=40.0 size=       1kB time=00:00:00.90 bitrate=   6.5kbits/s speed=0.035x    frame=  126 fps=4.8 q=39.0 size=       1kB time=00:00:00.96 bitrate=   6.1kbits/s speed=0.0363x    frame=  128 fps=4.7 q=39.0 size=       1kB time=00:00:01.00 bitrate=   5.9kbits/s speed=0.0365x    frame=  129 fps=4.6 q=39.0 size=       1kB time=00:00:01.02 bitrate=   5.8kbits/s speed=0.0364x    frame=  132 fps=4.5 q=39.0 size=       1kB time=00:00:01.08 bitrate=   5.4kbits/s speed=0.0365x    frame=  134 fps=4.4 q=39.0 size=       1kB time=00:00:01.12 bitrate=   5.3kbits/s speed=0.037x    frame=  138 fps=4.3 q=39.0 size=       1kB time=00:00:01.20 bitrate=   4.9kbits/s speed=0.0372x    frame=  140 fps=4.2 q=39.0 size=       1kB time=00:00:01.24 bitrate=   4.7kbits/s speed=0.0371x    frame=  144 fps=4.1 q=39.0 size=       1kB time=00:00:01.32 bitrate=   4.5kbits/s speed=0.0378x    frame=  146 fps=4.0 q=39.0 size=       1kB time=00:00:01.36 bitrate=   4.3kbits/s speed=0.0376x    frame=  149 fps=4.0 q=38.0 size=       1kB time=00:00:01.42 bitrate=   4.1kbits/s speed=0.0378x    frame=  152 fps=3.9 q=38.0 size=       1kB time=00:00:01.48 bitrate=   4.0kbits/s speed=0.0384x    frame=  155 fps=3.9 q=38.0 size=       1kB time=00:00:01.54 bitrate=   3.8kbits/s speed=0.0387x    frame=  157 fps=3.9 q=38.0 size=       1kB time=00:00:01.58 bitrate=   3.7kbits/s speed=0.039x    frame=  158 fps=3.8 q=38.0 size=       1kB time=00:00:01.60 bitrate=   3.7kbits/s speed=0.0386x    frame=  161 fps=3.8 q=38.0 size=       1kB time=00:00:01.66 bitrate=   3.5kbits/s speed=0.0389x    frame=  164 fps=3.7 q=38.0 size=       1kB time=00:00:01.72 bitrate=   3.4kbits/s speed=0.0392x    frame=  167 fps=3.6 q=38.0 size=       1kB time=00:00:01.78 bitrate=   3.3kbits/s speed=0.0388x    frame=  173 fps=3.6 q=38.0 size=       1kB time=00:00:01.90 bitrate=   3.1kbits/s speed=0.0396x    frame=  174 fps=3.6 q=38.0 size=       1kB time=00:00:01.92 bitrate=   3.1kbits/s speed=0.0392x    frame=  177 fps=3.6 q=38.0 size=       1kB time=00:00:01.98 bitrate=   3.0kbits/s speed=0.0398x    frame=  179 fps=3.5 q=38.0 size=       1kB time=00:00:02.02 bitrate=   2.9kbits/s speed=0.0398x    frame=  180 fps=3.5 q=38.0 size=       1kB time=00:00:02.04 bitrate=   2.9kbits/s speed=0.0395x    frame=  183 fps=3.5 q=38.0 size=       1kB time=00:00:02.10 bitrate=   2.8kbits/s speed=0.04x    frame=  185 fps=3.4 q=38.0 size=       1kB time=00:00:02.14 bitrate=   2.8kbits/s speed=0.0396x    frame=  191 fps=3.4 q=38.0 size=       1kB time=00:00:02.26 bitrate=   2.6kbits/s speed=0.0398x    frame=  194 fps=3.4 q=38.0 size=       1kB time=00:00:02.32 bitrate=   2.5kbits/s speed=0.0401x    frame=  195 fps=3.3 q=38.0 size=       1kB time=00:00:02.34 bitrate=   2.5kbits/s speed=0.0401x    frame=  197 fps=3.3 q=38.0 size=       1kB time=00:00:02.38 bitrate=   2.5kbits/s speed=0.0401x    frame=  200 fps=3.3 q=38.0 size=       1kB time=00:00:02.44 bitrate=   2.4kbits/s speed=0.0401x    frame=  203 fps=3.3 q=37.0 size=       1kB time=00:00:02.50 bitrate=   2.4kbits/s speed=0.0405x    frame=  205 fps=3.3 q=38.0 size=       1kB time=00:00:02.54 bitrate=   2.3kbits/s speed=0.0406x    frame=  206 fps=3.3 q=38.0 size=       1kB time=00:00:02.56 bitrate=   2.3kbits/s speed=0.0405x    frame=  207 fps=3.2 q=38.0 size=       1kB time=00:00:02.58 bitrate=   2.3kbits/s speed=0.0405x    frame=  209 fps=3.2 q=38.0 size=       1kB time=00:00:02.62 bitrate=   2.2kbits/s speed=0.0407x    frame=  210 fps=3.2 q=37.0 size=       1kB time=00:00:02.64 bitrate=   2.2kbits/s speed=0.0403x    frame=  212 fps=3.2 q=37.0 size=       1kB time=00:00:02.68 bitrate=   2.2kbits/s speed=0.0405x    frame=  214 fps=3.2 q=37.0 size=       1kB time=00:00:02.72 bitrate=   2.2kbits/s speed=0.0406x    frame=  216 fps=3.2 q=37.0 size=       1kB time=00:00:02.76 bitrate=   2.1kbits/s speed=0.0403x    frame=  219 fps=3.1 q=37.0 size=       1kB time=00:00:02.82 bitrate=   2.1kbits/s speed=0.0403x    frame=  222 fps=3.1 q=37.0 size=       1kB time=00:00:02.88 bitrate=   2.0kbits/s speed=0.0407x    frame=  225 fps=3.1 q=37.0 size=       1kB time=00:00:02.94 bitrate=   2.0kbits/s speed=0.0403x    frame=  229 fps=3.1 q=37.0 size=       1kB time=00:00:03.02 bitrate=   1.9kbits/s speed=0.0411x    frame=  231 fps=3.1 q=37.0 size=       1kB time=00:00:03.06 bitrate=   1.9kbits/s speed=0.0411x    frame=  232 fps=3.1 q=37.0 size=       1kB time=00:00:03.08 bitrate=   1.9kbits/s speed=0.0409x    frame=  234 fps=3.1 q=37.0 size=       1kB time=00:00:03.12 bitrate=   1.9kbits/s speed=0.0409x    frame=  238 fps=3.1 q=37.0 size=       1kB time=00:00:03.20 bitrate=   1.8kbits/s speed=0.0411x    frame=  240 fps=3.0 q=37.0 size=       1kB time=00:00:03.24 bitrate=   1.8kbits/s speed=0.0409x    frame=  244 fps=3.0 q=37.0 size=       1kB time=00:00:03.32 bitrate=   1.8kbits/s speed=0.0415x    frame=  246 fps=3.0 q=37.0 size=       1kB time=00:00:03.36 bitrate=   1.8kbits/s speed=0.0414x    frame=  247 fps=3.0 q=37.0 size=       1kB time=00:00:03.38 bitrate=   1.7kbits/s speed=0.0414x    frame=  248 fps=3.0 q=37.0 size=       1kB time=00:00:03.40 bitrate=   1.7kbits/s speed=0.0413x    frame=  249 fps=3.0 q=37.0 size=       1kB time=00:00:03.42 bitrate=   1.7kbits/s speed=0.0412x    frame=  252 fps=3.0 q=37.0 size=       1kB time=00:00:03.48 bitrate=   1.7kbits/s speed=0.0414x    frame=  254 fps=3.0 q=37.0 size=       1kB time=00:00:03.52 bitrate=   1.7kbits/s speed=0.0416x    frame=  256 fps=3.0 q=37.0 size=       1kB time=00:00:03.56 bitrate=   1.7kbits/s speed=0.0415x    frame=  258 fps=3.0 q=37.0 size=       1kB time=00:00:03.60 bitrate=   1.6kbits/s speed=0.0415x    frame=  260 fps=3.0 q=37.0 size=       1kB time=00:00:03.64 bitrate=   1.6kbits/s speed=0.0417x    frame=  261 fps=3.0 q=37.0 size=       1kB time=00:00:03.66 bitrate=   1.6kbits/s speed=0.0416x    frame=  264 fps=3.0 q=37.0 size=       1kB time=00:00:03.72 bitrate=   1.6kbits/s speed=0.0416x    frame=  267 fps=3.0 q=37.0 size=       1kB time=00:00:03.78 bitrate=   1.6kbits/s speed=0.0418x    frame=  268 fps=2.9 q=37.0 size=       1kB time=00:00:03.80 bitrate=   1.5kbits/s speed=0.0417x    frame=  270 fps=2.9 q=37.0 size=       1kB time=00:00:03.84 bitrate=   1.5kbits/s speed=0.0416x    frame=  274 fps=2.9 q=37.0 size=       1kB time=00:00:03.92 bitrate=   1.5kbits/s speed=0.042x    frame=  276 fps=2.9 q=37.0 size=       1kB time=00:00:03.96 bitrate=   1.5kbits/s speed=0.0416x    frame=  279 fps=2.9 q=37.0 size=       1kB time=00:00:04.02 bitrate=   1.5kbits/s speed=0.0418x    frame=  282 fps=2.9 q=37.0 size=       1kB time=00:00:04.08 bitrate=   1.4kbits/s speed=0.0419x    frame=  283 fps=2.9 q=37.0 size=       1kB time=00:00:04.10 bitrate=   1.4kbits/s speed=0.0418x    frame=  285 fps=2.9 q=37.0 size=       1kB time=00:00:04.14 bitrate=   1.4kbits/s speed=0.0418x    frame=  288 fps=2.9 q=37.0 size=       1kB time=00:00:04.20 bitrate=   1.4kbits/s speed=0.0419x    frame=  291 fps=2.9 q=37.0 size=       1kB time=00:00:04.26 bitrate=   1.4kbits/s speed=0.042x    frame=  292 fps=2.9 q=37.0 size=       1kB time=00:00:04.28 bitrate=   1.4kbits/s speed=0.042x    frame=  294 fps=2.9 q=37.0 size=       1kB time=00:00:04.32 bitrate=   1.4kbits/s speed=0.042x    frame=  296 fps=2.8 q=37.0 size=       1kB time=00:00:04.36 bitrate=   1.4kbits/s speed=0.0418x    frame=  298 fps=2.8 q=37.0 size=       1kB time=00:00:04.40 bitrate=   1.3kbits/s speed=0.0419x    frame=  300 fps=2.8 q=37.0 size=       1kB time=00:00:04.44 bitrate=   1.3kbits/s speed=0.0421x    frame=  301 fps=2.8 q=37.0 size=       1kB time=00:00:04.46 bitrate=   1.3kbits/s speed=0.042x    frame=  303 fps=2.8 q=37.0 size=       1kB time=00:00:04.50 bitrate=   1.3kbits/s speed=0.0421x    frame=  304 fps=2.8 q=37.0 size=       1kB time=00:00:04.52 bitrate=   1.3kbits/s speed=0.042x    frame=  305 fps=2.8 q=37.0 size=       1kB time=00:00:04.54 bitrate=   1.3kbits/s speed=0.042x    frame=  306 fps=2.8 q=37.0 size=       1kB time=00:00:04.56 bitrate=   1.3kbits/s speed=0.0419x    frame=  308 fps=2.8 q=37.0 size=       1kB time=00:00:04.60 bitrate=   1.3kbits/s speed=0.042x    frame=  311 fps=2.8 q=37.0 size=       1kB time=00:00:04.66 bitrate=   1.3kbits/s speed=0.0419x    frame=  312 fps=2.8 q=37.0 size=       1kB time=00:00:04.68 bitrate=   1.3kbits/s speed=0.0419x    frame=  313 fps=2.7 q=37.0 size=       1kB time=00:00:04.70 bitrate=   1.3kbits/s speed=0.0412x    frame=  318 fps=2.8 q=37.0 size=       1kB time=00:00:04.80 bitrate=   1.2kbits/s speed=0.0416x    frame=  319 fps=2.7 q=37.0 size=       1kB time=00:00:04.82 bitrate=   1.2kbits/s speed=0.0414x    frame=  324 fps=2.8 q=38.0 size=       1kB time=00:00:04.92 bitrate=   1.2kbits/s speed=0.0421x    frame=  325 fps=2.8 q=38.0 size=    2446kB time=00:00:04.94 bitrate=4055.8kbits/s speed=0.0419x    frame=  328 fps=2.8 q=38.0 size=    2446kB time=00:00:05.00 bitrate=4007.2kbits/s speed=0.0422x    frame=  331 fps=2.8 q=38.0 size=    2446kB time=00:00:05.06 bitrate=3959.7kbits/s speed=0.0423x    frame=  336 fps=2.8 q=38.0 size=    2446kB time=00:00:05.16 bitrate=3882.9kbits/s speed=0.0429x    frame=  337 fps=2.8 q=38.0 size=    2446kB time=00:00:05.18 bitrate=3867.9kbits/s speed=0.0428x    frame=  340 fps=2.8 q=38.0 size=    2446kB time=00:00:05.24 bitrate=3823.7kbits/s speed=0.0427x    frame=  345 fps=2.8 q=38.0 size=    2446kB time=00:00:05.34 bitrate=3752.1kbits/s speed=0.0432x    frame=  346 fps=2.8 q=38.0 size=    2446kB time=00:00:05.36 bitrate=3738.1kbits/s speed=0.0431x    frame=  349 fps=2.8 q=38.0 size=    2446kB time=00:00:05.42 bitrate=3696.7kbits/s speed=0.0432x    frame=  354 fps=2.8 q=38.0 size=    2446kB time=00:00:05.52 bitrate=3629.7kbits/s speed=0.0435x    frame=  355 fps=2.8 q=38.0 size=    2446kB time=00:00:05.54 bitrate=3616.6kbits/s speed=0.0434x    frame=  358 fps=2.8 q=38.0 size=    2446kB time=00:00:05.60 bitrate=3577.9kbits/s speed=0.0435x    frame=  363 fps=2.8 q=38.0 size=    2446kB time=00:00:05.70 bitrate=3515.1kbits/s speed=0.0438x    frame=  364 fps=2.8 q=38.0 size=    2446kB time=00:00:05.72 bitrate=3502.9kbits/s speed=0.0436x    frame=  367 fps=2.8 q=38.0 size=    2446kB time=00:00:05.78 bitrate=3466.5kbits/s speed=0.0439x    frame=  370 fps=2.8 q=38.0 size=    2446kB time=00:00:05.84 bitrate=3430.9kbits/s speed=0.0439x    frame=  373 fps=2.8 q=38.0 size=    2446kB time=00:00:05.90 bitrate=3396.0kbits/s speed=0.0439x    frame=  376 fps=2.8 q=38.0 size=    2446kB time=00:00:05.96 bitrate=3361.8kbits/s speed=0.044x    frame=  378 fps=2.8 q=38.0 size=    2446kB time=00:00:06.00 bitrate=3339.4kbits/s speed=0.0439x    frame=  379 fps=2.8 q=38.0 size=    2446kB time=00:00:06.02 bitrate=3328.3kbits/s speed=0.0438x    frame=  380 fps=2.8 q=38.0 size=    2446kB time=00:00:06.04 bitrate=3317.3kbits/s speed=0.0438x    frame=  382 fps=2.8 q=38.0 size=    2446kB time=00:00:06.08 bitrate=3295.5kbits/s speed=0.0439x    frame=  384 fps=2.8 q=38.0 size=    2446kB time=00:00:06.12 bitrate=3273.9kbits/s speed=0.044x    frame=  385 fps=2.8 q=38.0 size=    2446kB time=00:00:06.14 bitrate=3263.3kbits/s speed=0.0439x    frame=  387 fps=2.8 q=38.0 size=    2446kB time=00:00:06.18 bitrate=3242.2kbits/s speed=0.044x    frame=  388 fps=2.7 q=38.0 size=    2446kB time=00:00:06.20 bitrate=3231.7kbits/s speed=0.0439x    frame=  390 fps=2.8 q=38.0 size=    2446kB time=00:00:06.24 bitrate=3211.0kbits/s speed=0.044x    frame=  391 fps=2.7 q=38.0 size=    2446kB time=00:00:06.26 bitrate=3200.7kbits/s speed=0.044x    frame=  392 fps=2.7 q=38.0 size=    2446kB time=00:00:06.28 bitrate=3190.5kbits/s speed=0.0438x    frame=  393 fps=2.7 q=38.0 size=    2446kB time=00:00:06.30 bitrate=3180.4kbits/s speed=0.0438x    frame=  395 fps=2.7 q=38.0 size=    2446kB time=00:00:06.34 bitrate=3160.4kbits/s speed=0.0439x    frame=  398 fps=2.7 q=38.0 size=    2446kB time=00:00:06.40 bitrate=3130.7kbits/s speed=0.0438x    frame=  401 fps=2.7 q=38.0 size=    2446kB time=00:00:06.46 bitrate=3101.7kbits/s speed=0.0438x    frame=  404 fps=2.7 q=38.0 size=    2446kB time=00:00:06.52 bitrate=3073.1kbits/s speed=0.0438x    frame=  407 fps=2.7 q=38.0 size=    2446kB time=00:00:06.58 bitrate=3045.1kbits/s speed=0.0439x    frame=  408 fps=2.7 q=38.0 size=    2446kB time=00:00:06.60 bitrate=3035.9kbits/s speed=0.0438x    frame=  410 fps=2.7 q=38.0 size=    2446kB time=00:00:06.64 bitrate=3017.6kbits/s speed=0.0437x    frame=  413 fps=2.7 q=38.0 size=    2446kB time=00:00:06.70 bitrate=2990.6kbits/s speed=0.0439x    frame=  416 fps=2.7 q=38.0 size=    2446kB time=00:00:06.76 bitrate=2964.0kbits/s speed=0.0438x    frame=  418 fps=2.7 q=38.0 size=    2446kB time=00:00:06.80 bitrate=2946.6kbits/s speed=0.0439x    frame=  419 fps=2.7 q=38.0 size=    2446kB time=00:00:06.82 bitrate=2938.0kbits/s speed=0.0436x    frame=  423 fps=2.7 q=38.0 size=    2446kB time=00:00:06.90 bitrate=2903.9kbits/s speed=0.0439x    frame=  425 fps=2.7 q=38.0 size=    2446kB time=00:00:06.94 bitrate=2887.2kbits/s speed=0.0436x    frame=  428 fps=2.7 q=38.0 size=    2446kB time=00:00:07.00 bitrate=2862.4kbits/s speed=0.0437x    frame=  430 fps=2.7 q=38.0 size=    2446kB time=00:00:07.04 bitrate=2846.2kbits/s speed=0.0438x    frame=  431 fps=2.7 q=38.0 size=    2446kB time=00:00:07.06 bitrate=2838.1kbits/s speed=0.0437x    frame=  432 fps=2.7 q=38.0 size=    2446kB time=00:00:07.08 bitrate=2830.1kbits/s speed=0.0436x    frame=  434 fps=2.7 q=38.0 size=    2446kB time=00:00:07.12 bitrate=2814.2kbits/s speed=0.0437x    frame=  435 fps=2.7 q=38.0 size=    2446kB time=00:00:07.14 bitrate=2806.3kbits/s speed=0.0437x    frame=  437 fps=2.6 q=38.0 size=    2446kB time=00:00:07.18 bitrate=2790.7kbits/s speed=0.0435x    frame=  443 fps=2.6 q=38.0 size=    2446kB time=00:00:07.30 bitrate=2744.8kbits/s speed=0.0435x    frame=  446 fps=2.6 q=38.0 size=    2446kB time=00:00:07.36 bitrate=2722.4kbits/s speed=0.0436x    frame=  449 fps=2.6 q=38.0 size=    2446kB time=00:00:07.42 bitrate=2700.4kbits/s speed=0.0436x    frame=  450 fps=2.6 q=38.0 size=    2446kB time=00:00:07.44 bitrate=2693.2kbits/s speed=0.0435x    frame=  453 fps=2.6 q=38.0 size=    2446kB time=00:00:07.50 bitrate=2671.6kbits/s speed=0.0435x    frame=  457 fps=2.6 q=38.0 size=    2446kB time=00:00:07.58 bitrate=2643.4kbits/s speed=0.0437x    frame=  458 fps=2.6 q=38.0 size=    2446kB time=00:00:07.60 bitrate=2636.5kbits/s speed=0.0435x    frame=  459 fps=2.6 q=38.0 size=    2446kB time=00:00:07.62 bitrate=2629.6kbits/s speed=0.0434x    frame=  460 fps=2.6 q=38.0 size=    2446kB time=00:00:07.64 bitrate=2622.7kbits/s speed=0.0434x    frame=  464 fps=2.6 q=38.0 size=    2446kB time=00:00:07.72 bitrate=2595.5kbits/s speed=0.0434x    frame=  466 fps=2.6 q=38.0 size=    2446kB time=00:00:07.76 bitrate=2582.1kbits/s speed=0.0435x    frame=  470 fps=2.6 q=38.0 size=    2446kB time=00:00:07.84 bitrate=2555.8kbits/s speed=0.0434x    frame=  473 fps=2.6 q=38.0 size=    2446kB time=00:00:07.90 bitrate=2536.4kbits/s speed=0.0435x    frame=  475 fps=2.6 q=38.0 size=    2446kB time=00:00:07.94 bitrate=2523.6kbits/s speed=0.0436x    frame=  476 fps=2.6 q=38.0 size=    2446kB time=00:00:07.96 bitrate=2517.3kbits/s speed=0.0435x    frame=  477 fps=2.6 q=38.0 size=    2446kB time=00:00:07.98 bitrate=2510.9kbits/s speed=0.0434x    frame=  480 fps=2.6 q=38.0 size=    2446kB time=00:00:08.04 bitrate=2492.2kbits/s speed=0.0434x    frame=  481 fps=2.6 q=38.0 size=    2446kB time=00:00:08.06 bitrate=2486.0kbits/s speed=0.0433x    frame=  483 fps=2.6 q=38.0 size=    2446kB time=00:00:08.10 bitrate=2473.7kbits/s speed=0.0434x    frame=  486 fps=2.6 q=38.0 size=    2446kB time=00:00:08.16 bitrate=2455.6kbits/s speed=0.0433x    frame=  489 fps=2.6 q=38.0 size=    2446kB time=00:00:08.22 bitrate=2437.6kbits/s speed=0.0433x    frame=  492 fps=2.6 q=38.0 size=    2446kB time=00:00:08.28 bitrate=2420.0kbits/s speed=0.0433x    frame=  496 fps=2.6 q=38.0 size=    2446kB time=00:00:08.36 bitrate=2396.8kbits/s speed=0.0433x    frame=  499 fps=2.6 q=38.0 size=    2446kB time=00:00:08.42 bitrate=2379.7kbits/s speed=0.0435x    frame=  500 fps=2.2 q=-1.0 Lsize=    5518kB time=00:00:09.94 bitrate=4546.9kbits/s speed=0.0439x    
video:5513kB audio:0kB subtitle:0kB other streams:0kB global headers:0kB muxing overhead: 0.078378%
bench: utime=848.908s
bench: maxrss=3687844kB
[libx264 @ 0x424e120] frame I:3     Avg QP:35.21  size:190467
[libx264 @ 0x424e120] frame P:63    Avg QP:37.31  size: 25970
[libx264 @ 0x424e120] frame B:434   Avg QP:39.48  size:  7920
[libx264 @ 0x424e120] consecutive B-frames:  0.8%  0.0%  0.0%  1.6%  4.0%  3.6% 11.2% 17.6% 61.2%
[libx264 @ 0x424e120] mb I  I16..4: 42.6% 51.0%  6.4%
[libx264 @ 0x424e120] mb P  I16..4:  0.1%  0.1%  0.0%  P16..4: 27.1%  1.7%  4.1%  0.0%  0.0%    skip:67.0%
[libx264 @ 0x424e120] mb B  I16..4:  0.0%  0.0%  0.0%  B16..8: 30.3%  0.1%  0.0%  direct: 0.0%  skip:69.6%  L0:47.9% L1:52.1% BI: 0.0%
[libx264 @ 0x424e120] final ratefactor: 30.13
[libx264 @ 0x424e120] 8x8 transform intra:51.4% inter:80.7%
[libx264 @ 0x424e120] direct mvs  spatial:99.1% temporal:0.9%
[libx264 @ 0x424e120] coded y,uvDC,uvAC intra: 50.7% 33.5% 12.5% inter: 0.5% 0.5% 0.0%
[libx264 @ 0x424e120] i16 v,h,dc,p:  6% 20%  3% 71%
[libx264 @ 0x424e120] i8 v,h,dc,ddl,ddr,vr,hd,vl,hu:  4%  6%  7% 12% 19% 12% 19%  8% 13%
[libx264 @ 0x424e120] i4 v,h,dc,ddl,ddr,vr,hd,vl,hu:  3%  4%  2% 14% 19% 13% 20%  9% 16%
[libx264 @ 0x424e120] i8c dc,h,v,p: 13% 67% 12%  8%
[libx264 @ 0x424e120] Weighted P-Frames: Y:3.2% UV:1.6%
[libx264 @ 0x424e120] ref P L0: 66.1% 21.7%  6.7%  1.2%  1.0%  0.8%  0.7%  0.2%  0.2%  0.2%  0.2%  0.2%  0.2%  0.2%  0.2%  0.1%
[libx264 @ 0x424e120] ref B L0: 90.8%  4.5%  2.7%  0.4%  0.4%  0.4%  0.3%  0.1%  0.1%  0.1%  0.1%  0.1%  0.1%  0.1%  0.0%
[libx264 @ 0x424e120] ref B L1: 97.4%  2.6%
[libx264 @ 0x424e120] kb/s:4516.01
